HIERARCHY
ROOT Hips
{
	OFFSET -0.001795 -0.223333 0.028219
	CHANNELS 6 Xposition Yposition Zposition Zrotation Yrotation Xrotation 
	JOINT LeftUpLeg
	{
		OFFSET 0.069520 -0.091406 -0.006815
		CHANNELS 3 Zrotation Yrotation Xrotation
		JOINT LeftLeg
		{
			OFFSET 0.034277 -0.375199 -0.004496
			CHANNELS 3 Zrotation Yrotation Xrotation
			JOINT LeftFoot
			{
				OFFSET -0.013596 -0.397961 -0.043693
				CHANNELS 3 Zrotation Yrotation Xrotation
				JOINT LeftToe
				{
					OFFSET 0.026358 -0.055791 0.119288
					CHANNELS 3 Zrotation Yrotation Xrotation
					End Site
					{
						OFFSET 0.000000 0.000000 0.000000
					}
				}
			}
		}
	}
	JOINT RightUpLeg
	{
		OFFSET -0.067670 -0.090522 -0.004320
		CHANNELS 3 Zrotation Yrotation Xrotation
		JOINT RightLeg
		{
			OFFSET -0.038290 -0.382569 -0.008850
			CHANNELS 3 Zrotation Yrotation Xrotation
			JOINT RightFoot
			{
				OFFSET 0.015774 -0.398415 -0.042312
				CHANNELS 3 Zrotation Yrotation Xrotation
				JOINT RightToe
				{
					OFFSET -0.025372 -0.048144 0.123348
					CHANNELS 3 Zrotation Yrotation Xrotation
					End Site
					{
						OFFSET 0.000000 0.000000 0.000000
					}
				}
			}
		}
	}
	JOINT Spine
	{
		OFFSET -0.002533 0.108963 -0.026696
		CHANNELS 3 Zrotation Yrotation Xrotation
		JOINT Spine1
		{
			OFFSET 0.005487 0.135180 0.001092
			CHANNELS 3 Zrotation Yrotation Xrotation
			JOINT Spine2
			{
				OFFSET 0.001457 0.052922 0.025425
				CHANNELS 3 Zrotation Yrotation Xrotation
				JOINT Neck
				{
					OFFSET -0.002778 0.213870 -0.042857
					CHANNELS 3 Zrotation Yrotation Xrotation
					JOINT Head
					{
						OFFSET 0.005152 0.064970 0.051349
						CHANNELS 3 Zrotation Yrotation Xrotation
						End Site
						{
							OFFSET 0.000000 0.000000 0.000000
						}
					}
				}
				JOINT LeftShoulder
				{
					OFFSET 0.078845 0.121749 -0.034090
					CHANNELS 3 Zrotation Yrotation Xrotation
					JOINT LeftArm
					{
						OFFSET 0.090977 0.030469 -0.008868
						CHANNELS 3 Zrotation Yrotation Xrotation
						JOINT LeftForeArm
						{
							OFFSET 0.259612 -0.012772 -0.027456
							CHANNELS 3 Zrotation Yrotation Xrotation
							JOINT LeftHand
							{
								OFFSET 0.249234 0.008986 -0.001171
								CHANNELS 3 Zrotation Yrotation Xrotation
								End Site
								{
									OFFSET 0.000000 0.000000 0.000000
								}
							}
						}
					}
				}
				JOINT RightShoulder
				{
					OFFSET -0.081759 0.118833 -0.038615
					CHANNELS 3 Zrotation Yrotation Xrotation
					JOINT RightArm
					{
						OFFSET -0.096012 0.032551 -0.009143
						CHANNELS 3 Zrotation Yrotation Xrotation
						JOINT RightForeArm
						{
							OFFSET -0.253742 -0.013329 -0.021401
							CHANNELS 3 Zrotation Yrotation Xrotation
							JOINT RightHand
							{
								OFFSET -0.255298 0.007772 -0.005559
								CHANNELS 3 Zrotation Yrotation Xrotation
								End Site
								{
									OFFSET 0.000000 0.000000 0.000000
								}
							}
						}
					}
				}
			}
		}
	}
}
MOTION
Frames: 10
Frame Time: 0.050000
0.027467 0.949087 -0.034995 2.406366 -2.146710 9.003118 3.035873 -0.477080 -5.888388 -0.545378 0.261729 -6.715489 -1.806321 2.096483 14.245401 0.000000 0.000000 0.000000 -3.320579 0.362875 -2.775923 -7.992415 -0.631148 -13.252625 0.736118 -5.854004 17.935402 0.000000 0.000000 0.000000 4.975947 0.294582 -5.681207 0.158481 0.064871 -5.989574 -8.991757 7.111820 0.949290 13.144557 -5.836407 -16.520102 0.000000 0.000000 0.000000 -2.284859 -8.978089 2.597872 -20.337935 -47.509734 3.849860 108.038388 -66.633249 -83.173534 0.000000 0.000000 0.000000 0.134887 -3.392717 -1.213737 34.012103 34.024698 6.433116 -105.073751 37.242340 -37.048441 0.000000 0.000000 0.000000 
0.027062 0.949583 -0.035652 2.407009 -1.940397 9.182139 3.061999 -0.480700 -5.916788 -0.511995 0.273019 -7.141238 -1.974886 1.967525 14.570050 0.000000 0.000000 0.000000 -3.034057 0.365613 -2.913567 -8.427112 -0.650014 -13.346274 0.685290 -5.988222 18.209106 0.000000 0.000000 0.000000 4.842534 0.282163 -5.606570 0.255555 0.030145 -6.047721 -9.013535 6.795869 0.791148 13.055187 -5.855559 -16.242129 0.000000 0.000000 0.000000 -1.839152 -8.914522 2.630756 -19.418841 -47.921152 3.582302 104.785692 -65.238028 -78.267644 0.000000 0.000000 0.000000 -0.090494 -3.270191 -1.159390 33.982929 34.658744 6.641419 -104.390652 36.747404 -36.144800 0.000000 0.000000 0.000000 
0.026908 0.949957 -0.036240 2.372602 -1.800459 9.268986 3.116377 -0.476625 -5.847890 -0.502585 0.284652 -7.532119 -2.097974 1.877641 14.818373 0.000000 0.000000 0.000000 -2.980780 0.363271 -2.898214 -8.409328 -0.673717 -13.552776 0.663678 -6.068765 18.445621 0.000000 0.000000 0.000000 4.635080 0.257472 -5.361784 0.294713 0.019676 -6.188488 -8.851332 6.451718 0.756659 12.895250 -5.808087 -16.111082 0.000000 0.000000 0.000000 -1.632744 -9.129946 2.738672 -18.014269 -48.459189 3.157048 103.426219 -63.561072 -74.941083 0.000000 0.000000 0.000000 -0.265513 -3.205365 -1.126801 34.034900 35.103500 6.792318 -103.880411 36.002231 -35.122809 0.000000 0.000000 0.000000 
0.027017 0.950080 -0.036686 2.368674 -1.530434 9.297599 3.061158 -0.476079 -5.801286 -0.373386 0.286683 -7.791463 -2.261925 1.700231 14.935941 0.000000 0.000000 0.000000 -2.815513 0.341696 -2.677946 -8.663070 -0.724058 -13.941951 0.591607 -6.223062 18.730091 0.000000 0.000000 0.000000 4.502953 0.248775 -5.292517 0.260605 0.032269 -5.987167 -8.829094 5.962402 0.536159 12.570709 -5.741339 -15.623369 0.000000 0.000000 0.000000 -1.220689 -9.007529 2.749772 -17.118192 -49.574692 2.962749 101.830003 -62.128900 -71.690192 0.000000 0.000000 0.000000 -0.469340 -3.030457 -1.052253 34.336478 35.028811 6.857192 -103.828835 35.127373 -34.255260 0.000000 0.000000 0.000000 
0.027348 0.950134 -0.037057 2.364657 -1.415781 9.450932 2.941289 -0.484739 -5.878602 -0.173131 0.286302 -8.024767 -2.336031 1.634604 15.032059 0.000000 0.000000 0.000000 -2.849695 0.352250 -2.797478 -8.620676 -0.733912 -14.022283 0.545182 -6.308391 18.838833 0.000000 0.000000 0.000000 4.354390 0.242651 -5.267751 0.231092 0.053385 -6.256968 -8.837133 5.717908 0.585678 12.554377 -5.827039 -15.293742 0.000000 0.000000 0.000000 -0.917718 -9.156402 2.835639 -16.182392 -50.854815 2.719658 101.917214 -61.214482 -70.658272 0.000000 0.000000 0.000000 -0.667344 -3.233004 -1.113266 35.072858 34.875107 7.003894 -104.001451 34.817401 -34.079700 0.000000 0.000000 0.000000 
0.027694 0.950226 -0.037336 2.395378 -1.172851 9.399584 2.908806 -0.480248 -5.787541 -0.185887 0.291261 -8.183494 -2.482750 1.463591 15.096982 0.000000 0.000000 0.000000 -2.789832 0.348561 -2.783786 -8.797612 -0.723151 -13.880085 0.422905 -6.472357 18.857502 0.000000 0.000000 0.000000 4.329852 0.236230 -5.201569 0.203160 0.058832 -5.895730 -9.046321 5.228151 0.124874 12.464332 -5.866697 -14.892367 0.000000 0.000000 0.000000 -1.083117 -9.093777 2.807087 -15.934751 -52.150794 2.797034 102.815752 -61.330334 -71.492401 0.000000 0.000000 0.000000 -0.660988 -3.186664 -1.092640 35.635348 34.267663 6.975032 -104.444755 34.532742 -34.184932 0.000000 0.000000 0.000000 
0.027985 0.950188 -0.037529 2.387129 -1.114889 9.500538 2.733062 -0.483631 -5.779497 0.113873 0.289347 -8.429057 -2.524682 1.428933 15.156872 0.000000 0.000000 0.000000 -2.792690 0.358007 -2.900817 -8.807285 -0.722656 -13.865755 0.391926 -6.519798 18.884835 0.000000 0.000000 0.000000 4.204673 0.231599 -5.174564 0.178859 0.072900 -6.022183 -9.262881 5.090409 0.081021 12.485277 -5.934730 -14.665801 0.000000 0.000000 0.000000 -1.150867 -8.869245 2.727180 -16.101715 -53.797433 3.014364 103.600289 -61.830555 -72.709953 0.000000 0.000000 0.000000 -0.575947 -3.561122 -1.228874 36.793167 33.658738 7.080367 -105.358471 35.020164 -35.334017 0.000000 0.000000 0.000000 
0.028102 0.950100 -0.037583 2.419368 -1.077385 9.591857 2.715984 -0.487083 -5.816429 0.075781 0.295248 -8.558614 -2.553106 1.404309 15.197346 0.000000 0.000000 0.000000 -2.842087 0.363034 -2.944305 -8.795073 -0.733556 -13.955437 0.371645 -6.554265 18.919231 0.000000 0.000000 0.000000 4.147827 0.245465 -5.373076 0.117202 0.093634 -5.831112 -9.491080 4.775546 -0.171793 12.445084 -5.984093 -14.373138 0.000000 0.000000 0.000000 -1.272804 -8.769193 2.689352 -16.499678 -54.804071 3.329223 104.253755 -62.247189 -73.687896 0.000000 0.000000 0.000000 -0.289323 -3.762149 -1.313540 37.757278 33.126539 7.151665 -105.956326 35.906370 -36.953240 0.000000 0.000000 0.000000 
0.028052 0.950026 -0.037520 2.378147 -1.372162 9.601651 2.663596 -0.481138 -5.729799 0.212510 0.295245 -8.643836 -2.402611 1.596407 15.196105 0.000000 0.000000 0.000000 -2.761556 0.368539 -3.030232 -8.891782 -0.731214 -13.935575 0.519250 -6.354179 18.875481 0.000000 0.000000 0.000000 4.065229 0.257185 -5.508048 0.109190 0.095519 -5.935804 -9.607217 4.972927 -0.214545 12.442346 -6.009517 -14.244047 0.000000 0.000000 0.000000 -1.331914 -8.764389 2.678947 -17.358532 -55.399264 3.761219 104.749434 -62.673935 -74.666883 0.000000 0.000000 0.000000 -0.201851 -4.186558 -1.470654 38.779767 32.412866 7.171948 -106.762013 37.288960 -39.133724 0.000000 0.000000 0.000000 
0.027935 0.949978 -0.037387 2.357948 -1.489306 9.644835 2.674425 -0.484660 -5.788820 0.232477 0.292443 -8.575858 -2.330445 1.680362 15.163262 0.000000 0.000000 0.000000 -2.575069 0.370801 -3.112730 -9.188742 -0.732988 -13.905145 0.583757 -6.272490 18.875026 0.000000 0.000000 0.000000 4.121162 0.289546 -5.904605 -0.099011 0.172997 -5.722789 -9.704999 4.822271 -0.227894 12.302591 -6.020340 -13.892016 0.000000 0.000000 0.000000 -1.562324 -8.463817 2.563835 -17.783428 -56.163141 4.070760 104.441773 -63.096569 -74.723153 0.000000 0.000000 0.000000 -0.008523 -4.352807 -1.540749 39.540917 32.070997 7.231644 -107.800650 38.095132 -40.992442 0.000000 0.000000 0.000000 
